<?xml version="1.0" standalone="no"?>
<!DOCTYPE svg PUBLIC "-//W3C//DTD SVG 20010904//EN"
 "http://www.w3.org/TR/2001/REC-SVG-20010904/DTD/svg10.dtd">
<svg version="1.0" xmlns="http://www.w3.org/2000/svg"
 width="20px" height="20px" viewBox="0 0 1244.000000 1280.000000"
 preserveAspectRatio="xMidYMid meet">
<g transform="translate(0.000000,1280.000000) scale(0.100000,-0.100000)"
fill="#4caf50" stroke="none">
<path d="M5880 12793 c-216 -21 -463 -106 -603 -207 -69 -49 -193 -175 -279
-282 -184 -231 -347 -566 -428 -879 -30 -114 -38 -325 -15 -425 9 -41 27 -133
41 -205 101 -527 115 -592 176 -765 145 -419 319 -942 315 -946 -3 -3 -21 24
-41 61 -21 36 -88 145 -150 243 -110 173 -146 235 -296 511 -88 161 -165 278
-256 386 -37 44 -101 123 -143 175 -105 133 -183 212 -276 283 -44 34 -124
102 -179 152 -168 154 -248 214 -341 261 -139 68 -217 85 -445 94 -107 4 -296
15 -419 25 -251 21 -379 14 -484 -25 -64 -24 -219 -152 -388 -320 -164 -163
-303 -389 -351 -568 -26 -99 -35 -345 -19 -502 35 -336 173 -741 331 -975 74
-109 129 -164 251 -252 63 -45 191 -140 284 -213 250 -193 375 -274 625 -407
272 -145 987 -553 969 -553 -4 0 -55 11 -115 25 -60 13 -190 38 -289 55 -206
35 -300 55 -545 115 -262 65 -324 75 -580 90 -327 20 -458 19 -577 -4 -54 -11
-176 -27 -271 -36 -277 -26 -359 -47 -503 -131 -65 -38 -117 -82 -230 -194
-80 -80 -216 -211 -302 -293 -177 -168 -267 -273 -311 -367 l-31 -65 -3 -215
c-6 -324 18 -488 102 -711 46 -122 88 -188 186 -292 166 -176 347 -310 571
-422 275 -139 479 -206 690 -227 106 -11 124 -10 230 10 63 13 236 45 384 73
338 62 476 95 640 154 151 55 626 215 634 215 12 0 -460 -265 -644 -362 -229
-120 -346 -197 -614 -402 -112 -86 -238 -181 -280 -210 -106 -75 -162 -127
-216 -198 -100 -133 -180 -295 -254 -516 -92 -273 -122 -451 -123 -717 0 -235
17 -322 95 -477 111 -220 225 -356 490 -586 112 -97 138 -115 195 -133 94 -30
301 -36 542 -15 102 8 259 18 350 22 332 12 471 71 730 310 63 58 160 141 215
184 123 96 171 146 315 325 62 77 129 157 147 179 59 66 176 253 288 461 59
110 146 261 193 335 137 215 228 370 367 622 71 130 131 235 132 234 9 -8
-308 -1223 -373 -1434 -86 -276 -108 -386 -149 -732 -14 -118 -35 -272 -45
-342 -11 -70 -20 -160 -20 -201 0 -171 62 -377 191 -637 136 -273 247 -428
445 -621 189 -183 287 -235 554 -297 105 -24 132 -26 320 -26 283 1 436 17
503 50 112 56 225 166 427 414 52 63 137 160 189 215 122 130 164 187 217 299
59 125 72 191 84 416 6 107 17 258 26 335 13 116 14 161 4 265 -6 69 -13 134
-16 145 -2 11 -11 89 -19 172 -20 205 -44 314 -131 597 -40 132 -85 290 -100
351 -79 331 -100 412 -169 644 -42 140 -74 255 -73 256 8 8 568 -996 700
-1255 55 -107 110 -211 121 -230 51 -87 172 -261 307 -440 80 -107 166 -224
190 -260 62 -92 172 -203 260 -262 154 -103 431 -219 670 -280 193 -49 305
-62 520 -62 226 1 292 14 446 88 161 77 287 167 414 294 173 173 279 298 305
356 44 99 57 302 34 536 -5 58 -14 215 -18 350 -8 222 -11 253 -35 335 -48
160 -107 253 -296 465 -57 63 -127 149 -158 190 -30 41 -71 92 -91 114 -30 32
-260 230 -435 375 -69 57 -221 152 -426 266 -107 59 -287 167 -400 240 -231
149 -282 179 -608 364 -254 144 -316 172 -443 195 -177 34 -302 76 -293 100 4
11 20 7 78 -20 106 -50 684 -178 1057 -234 110 -16 272 -46 362 -65 502 -110
530 -114 937 -117 264 -3 292 -1 385 19 55 13 179 32 275 43 268 31 390 69
530 163 58 39 615 599 692 696 32 40 73 101 91 135 l32 61 -1 265 c-1 291 -10
369 -63 540 -66 216 -140 340 -279 470 -175 165 -373 298 -586 393 -302 135
-511 191 -716 190 -97 0 -138 -5 -265 -35 -82 -20 -233 -53 -335 -73 -326 -64
-461 -103 -713 -204 -70 -28 -178 -69 -240 -90 -62 -22 -191 -67 -287 -101
-96 -33 -170 -57 -165 -51 6 5 71 56 145 113 75 57 198 158 275 223 77 66 183
152 235 191 52 39 158 118 235 175 164 121 239 192 451 419 183 198 230 256
286 359 23 42 93 152 156 245 165 243 200 326 221 518 9 78 2 236 -14 305 -3
13 -12 135 -20 272 -20 348 -39 460 -96 572 -24 48 -53 79 -166 176 -207 177
-306 248 -438 312 -219 107 -347 138 -535 127 -283 -15 -539 -87 -840 -237
-263 -131 -457 -276 -554 -413 -23 -33 -67 -106 -96 -161 -30 -55 -110 -199
-179 -320 -153 -270 -214 -398 -286 -602 -56 -158 -346 -895 -351 -890 -1 1 9
49 22 107 14 58 43 207 64 332 39 226 53 292 130 608 49 203 66 331 79 615 15
298 14 338 -9 457 -11 57 -27 175 -35 263 -40 418 -84 513 -365 795 -96 97
-238 241 -315 321 -154 158 -269 245 -364 273 -44 13 -99 16 -280 14 -124 0
-242 -3 -261 -5z"/>
</g>
</svg>
